<svg xmlns="http://www.w3.org/2000/svg" viewBox="0 0 128 128" role="img" aria-labelledby="title desc">
  <title id="title">Ember &amp; Tide monogram</title>
  <desc id="desc">A polished ember flame and tide wave monogram for Ember &amp; Tide.</desc>
  <defs>
    <linearGradient id="ember" x1="32" y1="18" x2="91" y2="108" gradientUnits="userSpaceOnUse">
      <stop offset="0" stop-color="#FFC857"/>
      <stop offset="0.42" stop-color="#FF7A3D"/>
      <stop offset="1" stop-color="#C94E28"/>
    </linearGradient>
    <linearGradient id="tide" x1="23" y1="81" x2="109" y2="48" gradientUnits="userSpaceOnUse">
      <stop offset="0" stop-color="#EAF7F5"/>
      <stop offset="0.48" stop-color="#45C7D8"/>
      <stop offset="1" stop-color="#168FA3"/>
    </linearGradient>
    <filter id="shadow" x="-20%" y="-20%" width="140%" height="140%">
      <feDropShadow dx="0" dy="8" stdDeviation="8" flood-color="#02070C" flood-opacity="0.32"/>
    </filter>
  </defs>
  <rect width="128" height="128" rx="28" fill="#07131D"/>
  <circle cx="64" cy="64" r="49" fill="#0D1D27" stroke="rgba(248,243,231,0.18)" stroke-width="2"/>
  <g filter="url(#shadow)">
    <path fill="url(#ember)" d="M68 19c-15 16-13 30-8 39-8-5-14-13-13-24-17 16-24 33-21 49 4 23 22 36 43 34 20-2 35-16 37-35 2-17-6-31-22-42 1 10-2 18-10 25 1-16-2-28-6-46Z"/>
    <path fill="#F8F3E7" opacity="0.92" d="M58 89c14 5 28 1 41-11 0 17-13 31-32 32-17 1-31-8-36-23 8 1 17 0 27 2Z"/>
    <path fill="url(#tide)" d="M27 82c18-10 34-9 49 2 11 8 21 10 32 3-7 13-20 22-35 23-20 1-38-8-46-28Z"/>
    <path fill="none" stroke="#F8F3E7" stroke-width="5" stroke-linecap="round" d="M36 82c15-6 27-5 39 3 9 6 18 8 29 2"/>
  </g>
</svg>
