<?xml version="1.0" encoding="UTF-8"?>
<svg xmlns="http://www.w3.org/2000/svg" width="512" height="512" viewBox="0 0 512 512" role="img" aria-label="Ember & Tide flame and wave mark">
  <defs>
    <radialGradient id="bg" cx="26%" cy="18%" r="82%">
      <stop offset="0" stop-color="#0c2b47"/>
      <stop offset=".56" stop-color="#08223a"/>
      <stop offset="1" stop-color="#04111f"/>
    </radialGradient>
    <linearGradient id="emberGrad" x1="160" y1="52" x2="308" y2="318" gradientUnits="userSpaceOnUse">
      <stop offset="0" stop-color="#ff9a1f"/>
      <stop offset=".45" stop-color="#ff6a13"/>
      <stop offset="1" stop-color="#f0440b"/>
    </linearGradient>
    <linearGradient id="tideGrad" x1="108" y1="300" x2="386" y2="392" gradientUnits="userSpaceOnUse">
      <stop offset="0" stop-color="#38bdf8"/>
      <stop offset=".7" stop-color="#0ea5e9"/>
      <stop offset="1" stop-color="#0369a1"/>
    </linearGradient>
    <filter id="softShadow" x="-20%" y="-20%" width="140%" height="150%">
      <feDropShadow dx="0" dy="18" stdDeviation="18" flood-color="#000814" flood-opacity=".42"/>
    </filter>
  </defs>

  <g transform="translate(46 50) scale(1.1122448979591837)" filter="url(#softShadow)">
    <path fill="url(#emberGrad)" d="M223 28c-40 43-36 82-31 107-26-22-42-49-40-82-59 54-86 112-78 171 10 76 76 124 158 126 78 2 143-42 158-113 10-47-4-89-44-129 3 32-8 56-31 72 3-49-21-96-92-152Z"/>
    <path fill="#ffb34f" opacity=".95" d="M210 146c-24 27-26 55-13 83-22-12-35-29-38-52-31 31-41 62-31 93 13 39 55 61 104 57 45-4 80-31 86-70 4-25-5-49-29-73-1 21-12 38-31 50 2-35-12-63-48-88Z"/>
    <path fill="url(#tideGrad)" d="M55 279c50 42 105 58 162 45 57-14 101-55 162-55-47 79-118 122-202 112-58-7-101-39-122-102Z"/>
    <path fill="#04111f" opacity=".88" d="M82 285c62 25 113 24 154-2 29-19 62-32 103-30-47 23-80 52-127 61-43 9-87-.2-130-29Z"/>
    <path fill="#04111f" opacity=".78" d="M118 329c47 15 89 12 127-9 22-12 48-20 77-19-35 24-72 42-116 45-32 2-61-4-88-17Z"/>
    <path fill="#38bdf8" opacity=".72" d="M77 258c64 23 120 18 168-15 41-28 83-38 129-28-54 6-94 35-135 59-48 29-102 23-162-16Z"/>
  </g>
</svg>