<?xml version="1.0" encoding="UTF-8"?>
<svg xmlns="http://www.w3.org/2000/svg" width="1200" height="640" viewBox="0 0 1200 640" role="img" aria-label="Track. Trade. Thrive.">
  <defs><linearGradient id="bg" x1="0" y1="0" x2="1" y2="1"><stop stop-color="#061426"/><stop offset=".58" stop-color="#08223a"/><stop offset="1" stop-color="#020814"/></linearGradient></defs>
  <rect width="1200" height="640" fill="url(#bg)"/>
  <circle cx="144" cy="76.8" r="153.6" fill="#ff6a13" opacity=".24"/>
  <circle cx="1056" cy="115.19999999999999" r="140.8" fill="#38bdf8" opacity=".22"/>
  <svg x="512" y="76.8" width="176" height="176" viewBox="0 0 512 512"><g transform="translate(112 92) rotate(-6 144 172)">
      <path d="M36 0h216l18 26-10 18 10 18-10 18 10 18-10 18 10 18-10 18 10 18-10 18 10 18-10 18 10 18-18 26H36L18 252l10-18-10-18 10-18-10-18 10-18-10-18 10-18-10-18 10-18-10-18 10-18-10-18z" fill="url(#packGrad)" stroke="url(#neonEdge)" stroke-width="10" filter="url(#neonGlow)"/>
      <path d="M50 34h188v206H50z" fill="url(#packGlow)" opacity=".92"/>
      <path d="M72 56h144v158H72z" rx="28" fill="#050b1c" stroke="url(#neonEdge)" stroke-width="6"/>
      <g transform="translate(44 34) scale(.52)">
        <path fill="url(#emberGrad)" d="M223 28c-40 43-36 82-31 107-26-22-42-49-40-82-59 54-86 112-78 171 10 76 76 124 158 126 78 2 143-42 158-113 10-47-4-89-44-129 3 32-8 56-31 72 3-49-21-96-92-152Z"/>
        <path fill="#ffb34f" opacity=".95" d="M210 146c-24 27-26 55-13 83-22-12-35-29-38-52-31 31-41 62-31 93 13 39 55 61 104 57 45-4 80-31 86-70 4-25-5-49-29-73-1 21-12 38-31 50 2-35-12-63-48-88Z"/>
        <path fill="url(#tideGrad)" d="M55 279c50 42 105 58 162 45 57-14 101-55 162-55-47 79-118 122-202 112-58-7-101-39-122-102Z"/>
        <path fill="#04111f" opacity=".88" d="M82 285c62 25 113 24 154-2 29-19 62-32 103-30-47 23-80 52-127 61-43 9-87-.2-130-29Z"/>
        <path fill="#04111f" opacity=".78" d="M118 329c47 15 89 12 127-9 22-12 48-20 77-19-35 24-72 42-116 45-32 2-61-4-88-17Z"/>
        <path fill="#38bdf8" opacity=".72" d="M77 258c64 23 120 18 168-15 41-28 83-38 129-28-54 6-94 35-135 59-48 29-102 23-162-16Z"/>
      </g>
      <path d="M54 18h178M54 262h178" stroke="#ff2fb3" stroke-opacity=".6" stroke-width="4"/>
      <path d="M54 28h178M54 252h178" stroke="#38bdf8" stroke-opacity=".5" stroke-width="3"/>
    </g>
  </g>
</svg>
  <text x="600" y="307.2" fill="#ff6a13" text-anchor="middle" font-family="Inter, Arial, sans-serif" font-size="84.00000000000001" font-weight="950">Ember &amp; Tide</text>
  <text x="600" y="358.40000000000003" fill="#f8fafc" text-anchor="middle" font-family="Inter, Arial, sans-serif" font-size="62.4" font-weight="700">Track. Trade. Thrive.</text>
  <text x="600" y="403.2" fill="#a8b8ca" text-anchor="middle" font-family="Inter, Arial, sans-serif" font-size="38.4">Try the beta. Join Kids Program. Partner with us.</text>

  <text x="600" y="568" fill="#38bdf8" text-anchor="middle" font-family="Inter, Arial, sans-serif" font-size="31.2" font-weight="800">emberandtide.app</text>
</svg>